<svg xmlns="http://www.w3.org/2000/svg" viewBox="0 0 1600 900" role="img" aria-label="Familles et habitat au Togo">
  <defs>
    <linearGradient id="bg" x1="0" y1="0" x2="1" y2="1">
      <stop offset="0" stop-color="#1e293b"/>
      <stop offset="1" stop-color="#0f766e"/>
    </linearGradient>
  </defs>
  <rect width="1600" height="900" fill="url(#bg)"/>
  <g opacity=".16" fill="#ffffff">
    <circle cx="220" cy="180" r="68"/>
    <circle cx="530" cy="130" r="38"/>
    <circle cx="980" cy="170" r="56"/>
    <circle cx="1340" cy="115" r="46"/>
  </g>
  <rect x="180" y="530" width="300" height="220" rx="14" fill="#f8fafc"/>
  <polygon points="180,530 330,430 480,530" fill="#ef4444"/>
  <rect x="295" y="625" width="68" height="125" fill="#334155"/>
  <rect x="670" y="500" width="300" height="250" rx="14" fill="#e2e8f0"/>
  <polygon points="670,500 820,410 970,500" fill="#0ea5e9"/>
  <rect x="780" y="625" width="72" height="125" fill="#1e293b"/>
  <rect x="1140" y="550" width="260" height="200" rx="14" fill="#f1f5f9"/>
  <polygon points="1140,550 1270,470 1400,550" fill="#22c55e"/>
  <text x="96" y="110" fill="#f8fafc" font-family="Segoe UI, Arial, sans-serif" font-size="42" font-weight="700">Des quartiers de qualite pour les familles togolaises</text>
</svg>
